<?xml version="1.0" encoding="UTF-8" standalone="no"?>
<!-- Created with Inkscape (http://www.inkscape.org/) -->
<svg xmlns:dc="http://purl.org/dc/elements/1.1/" xmlns:cc="http://creativecommons.org/ns#" xmlns:rdf="http://www.w3.org/1999/02/22-rdf-syntax-ns#" xmlns:svg="http://www.w3.org/2000/svg" xmlns="http://www.w3.org/2000/svg" xmlns:sodipodi="http://sodipodi.sourceforge.net/DTD/sodipodi-0.dtd" xmlns:inkscape="http://www.inkscape.org/namespaces/inkscape" width="129.21806" height="140" id="svg7338" version="1.1" inkscape:version="0.48.3.1 r9886" sodipodi:docname="Nouveau document 58">
  <defs id="defs7340"/>
  <sodipodi:namedview id="base" pagecolor="#ffffff" bordercolor="#666666" borderopacity="1.0" inkscape:pageopacity="0.0" inkscape:pageshadow="2" inkscape:zoom="0.35" inkscape:cx="64.60903" inkscape:cy="69.999997" inkscape:document-units="px" inkscape:current-layer="layer1" showgrid="false" fit-margin-top="0" fit-margin-left="0" fit-margin-right="0" fit-margin-bottom="0" inkscape:window-width="486" inkscape:window-height="415" inkscape:window-x="537" inkscape:window-y="455" inkscape:window-maximized="0"/>
  <g inkscape:label="Calque 1" inkscape:groupmode="layer" id="layer1" transform="translate(-310.39097,-462.36218)">
    <path inkscape:connector-curvature="0" id="path588" d="m 406.64097,558.61218 c 0,6.9043 -14.5508,12.5 -32.5,12.5 -17.94922,0 -32.5,-5.5957 -32.5,-12.5 0,-6.9043 14.55078,-12.5 32.5,-12.5 17.9492,0 32.5,5.5957 32.5,12.5" style="fill:#bdbdbd;fill-opacity:1;fill-rule:evenodd;stroke:#7d7d7d;stroke-width:2.5;stroke-linecap:butt;stroke-linejoin:miter;stroke-miterlimit:10;stroke-opacity:1"/>
    <path inkscape:connector-curvature="0" id="path590" d="m 359.14097,531.11218 30,0 0,27.5 -30,0 z m 0,0" style="fill:#bdbdbd;fill-opacity:1;fill-rule:evenodd;stroke:#7d7d7d;stroke-width:2.5;stroke-linecap:butt;stroke-linejoin:miter;stroke-miterlimit:10;stroke-opacity:1"/>
    <path inkscape:connector-curvature="0" id="path592" d="m 321.64097,463.61218 102.5,0 2.5,87.5 -107.5,0 z m 0,0" style="fill:#bdbdbd;fill-opacity:1;fill-rule:evenodd;stroke:#7d7d7d;stroke-width:2.5;stroke-linecap:butt;stroke-linejoin:miter;stroke-miterlimit:10;stroke-opacity:1"/>
    <path inkscape:connector-curvature="0" id="path594" d="m 329.14097,468.61218 87.5,0 2.5,75 -92.5,0 z m 0,0" style="fill:#8a9ec2;fill-opacity:1;fill-rule:evenodd;stroke:#7d7d7d;stroke-width:2.5;stroke-linecap:butt;stroke-linejoin:miter;stroke-miterlimit:10;stroke-opacity:1"/>
    <path inkscape:connector-curvature="0" id="path596" d="m 321.64097,571.11218 102.5,0 10,30 -122.5,0 z m 0,0" style="fill:#bdbdbd;fill-opacity:1;fill-rule:evenodd;stroke:#7d7d7d;stroke-width:2.5;stroke-linecap:butt;stroke-linejoin:miter;stroke-miterlimit:10;stroke-opacity:1"/>
    <path inkscape:connector-curvature="0" id="path598" d="m 326.64097,576.11218 66.25,0 6.25,20 -12.5,0 -2.5,-5 -50,0 -2.5,5 -12.5,0 z m 0,0" style="fill:#9c9c9c;fill-opacity:1;fill-rule:evenodd;stroke:#7d7d7d;stroke-width:1.25;stroke-linecap:butt;stroke-linejoin:miter;stroke-miterlimit:10;stroke-opacity:1"/>
    <path inkscape:connector-curvature="0" id="path600" d="m 400.39097,576.11218 20,0 6.25,20 -20,0 z m 0,0" style="fill:#9c9c9c;fill-opacity:1;fill-rule:evenodd;stroke:#7d7d7d;stroke-width:1.25;stroke-linecap:butt;stroke-linejoin:miter;stroke-miterlimit:10;stroke-opacity:1"/>
    <path inkscape:connector-curvature="0" id="path602" d="m 336.64097,593.61218 45,0 1.001,2.5 -47.00195,0 z m 0,0" style="fill:#9c9c9c;fill-opacity:1;fill-rule:evenodd;stroke:#7d7d7d;stroke-width:1.25;stroke-linecap:butt;stroke-linejoin:miter;stroke-miterlimit:10;stroke-opacity:1"/>
    <path inkscape:connector-curvature="0" id="path604" d="m 426.64097,581.11218 c 8.30078,0 15,-5 10,-15 -5,-10 -40,5 -45,-15" style="fill:none;stroke:#7d7d7d;stroke-width:2.5;stroke-linecap:butt;stroke-linejoin:miter;stroke-miterlimit:10;stroke-opacity:1"/>
    <path inkscape:connector-curvature="0" id="path606" d="m 416.64097,547.36218 c 0,1.665 -2.5,1.665 -2.5,0 0,-1.665 2.5,-1.665 2.5,0" style="fill:#7d7d7d;fill-opacity:1;fill-rule:evenodd;stroke:#7d7d7d;stroke-width:1.25;stroke-linecap:butt;stroke-linejoin:miter;stroke-miterlimit:10;stroke-opacity:1"/>
    <path inkscape:connector-curvature="0" id="path608" d="m 421.64097,547.36218 c 0,1.665 -2.5,1.665 -2.5,0 0,-1.665 2.5,-1.665 2.5,0" style="fill:#7d7d7d;fill-opacity:1;fill-rule:evenodd;stroke:#7d7d7d;stroke-width:1.25;stroke-linecap:butt;stroke-linejoin:miter;stroke-miterlimit:10;stroke-opacity:1"/>
    <path inkscape:connector-curvature="0" id="path610" d="m 411.64097,547.36218 c 0,1.665 -2.5,1.665 -2.5,0 0,-1.665 2.5,-1.665 2.5,0" style="fill:#7d7d7d;fill-opacity:1;fill-rule:evenodd;stroke:#7d7d7d;stroke-width:1.25;stroke-linecap:butt;stroke-linejoin:miter;stroke-miterlimit:10;stroke-opacity:1"/>
  </g>
  <metadata>
    <rdf:RDF>
      <cc:Work>
        <dc:format>image/svg+xml</dc:format>
        <dc:type rdf:resource="http://purl.org/dc/dcmitype/StillImage"/>
        <cc:license rdf:resource="http://creativecommons.org/licenses/publicdomain/"/>
        <dc:publisher>
          <cc:Agent rdf:about="http://openclipart.org/">
            <dc:title>Open Clip Art Library</dc:title>
          </cc:Agent>
        </dc:publisher>
        <dc:title>Computer</dc:title>
        <dc:date>2012-08-02T14:23:47</dc:date>
        <dc:description/>
        <dc:source>http://openclipart.org/detail/171416/computer-by-cyberscooty-171416</dc:source>
        <dc:creator>
          <cc:Agent>
            <dc:title>cyberscooty</dc:title>
          </cc:Agent>
        </dc:creator>
        <dc:subject>
          <rdf:Bag>
            <rdf:li>clip art</rdf:li>
            <rdf:li>clipart</rdf:li>
            <rdf:li>computer</rdf:li>
            <rdf:li>informatique</rdf:li>
            <rdf:li>it</rdf:li>
            <rdf:li>ordinateur</rdf:li>
            <rdf:li>server</rdf:li>
            <rdf:li>serveur</rdf:li>
          </rdf:Bag>
        </dc:subject>
      </cc:Work>
      <cc:License rdf:about="http://creativecommons.org/licenses/publicdomain/">
        <cc:permits rdf:resource="http://creativecommons.org/ns#Reproduction"/>
        <cc:permits rdf:resource="http://creativecommons.org/ns#Distribution"/>
        <cc:permits rdf:resource="http://creativecommons.org/ns#DerivativeWorks"/>
      </cc:License>
    </rdf:RDF>
  </metadata>
</svg>
