<?xml version="1.0" encoding="UTF-8" standalone="no"?>
<!-- Created with Inkscape (http://www.inkscape.org/) -->
<svg xmlns:dc="http://purl.org/dc/elements/1.1/" xmlns:cc="http://creativecommons.org/ns#" xmlns:rdf="http://www.w3.org/1999/02/22-rdf-syntax-ns#" xmlns:svg="http://www.w3.org/2000/svg" xmlns="http://www.w3.org/2000/svg" xmlns:sodipodi="http://sodipodi.sourceforge.net/DTD/sodipodi-0.dtd" xmlns:inkscape="http://www.inkscape.org/namespaces/inkscape" width="83.75" height="138.75" id="svg6327" version="1.1" inkscape:version="0.48.3.1 r9886" sodipodi:docname="Nouveau document 24">
  <defs id="defs6329"/>
  <sodipodi:namedview id="base" pagecolor="#ffffff" bordercolor="#666666" borderopacity="1.0" inkscape:pageopacity="0.0" inkscape:pageshadow="2" inkscape:zoom="0.35" inkscape:cx="196.875" inkscape:cy="-96.339283" inkscape:document-units="px" inkscape:current-layer="layer1" showgrid="false" fit-margin-top="0" fit-margin-left="0" fit-margin-right="0" fit-margin-bottom="0" inkscape:window-width="486" inkscape:window-height="415" inkscape:window-x="49" inkscape:window-y="24" inkscape:window-maximized="0"/>
  <g inkscape:label="Calque 1" inkscape:groupmode="layer" id="layer1" transform="translate(-178.125,-297.2729)">
    <path inkscape:connector-curvature="0" id="path256" d="m 180,314.1479 15,-15 50,0 15,15 0,120 -80,0 z m 0,0" style="fill:#e1e1e1;fill-opacity:1;fill-rule:evenodd;stroke:#7d7d7d;stroke-width:3.75;stroke-linecap:butt;stroke-linejoin:miter;stroke-miterlimit:10;stroke-opacity:1"/>
    <path inkscape:connector-curvature="0" id="path258" d="m 187.5,316.6479 12.5,-12.5 40,0 12.5,12.5 z m 0,0" style="fill:#bdbdbd;fill-opacity:1;fill-rule:evenodd;stroke:#9c9c9c;stroke-width:1.25;stroke-linecap:butt;stroke-linejoin:miter;stroke-miterlimit:10;stroke-opacity:1"/>
    <path inkscape:connector-curvature="0" id="path260" d="m 188.75,319.1479 62.5,0 c 0.6885,0 1.25,0.56152 1.25,1.25 l 0,107.5 c 0,0.6885 -0.5615,1.25 -1.25,1.25 l -62.5,0 c -0.69325,0 -1.25,-0.5615 -1.25,-1.25 l 0,-107.5 c 0,-0.68848 0.55675,-1.25 1.25,-1.25" style="fill:#bdbdbd;fill-opacity:1;fill-rule:evenodd;stroke:#9c9c9c;stroke-width:1.25;stroke-linecap:butt;stroke-linejoin:round;stroke-miterlimit:10;stroke-opacity:1"/>
    <path inkscape:connector-curvature="0" id="path262" d="m 193.75,326.6479 52.5,0 c 0.6885,0 1.25,0.56152 1.25,1.25 l 0,12.5 c 0,0.68847 -0.5615,1.25 -1.25,1.25 l -52.5,0 c -0.69325,0 -1.25,-0.56153 -1.25,-1.25 l 0,-12.5 c 0,-0.68848 0.55675,-1.25 1.25,-1.25" style="fill:#9c9c9c;fill-opacity:1;fill-rule:evenodd;stroke:#7d7d7d;stroke-width:3.75;stroke-linecap:butt;stroke-linejoin:round;stroke-miterlimit:10;stroke-opacity:1"/>
    <path inkscape:connector-curvature="0" id="path264" d="m 193.75,349.1479 52.5,0 c 0.6885,0 1.25,0.56152 1.25,1.25 l 0,12.5 c 0,0.68847 -0.5615,1.25 -1.25,1.25 l -52.5,0 c -0.69325,0 -1.25,-0.56153 -1.25,-1.25 l 0,-12.5 c 0,-0.68848 0.55675,-1.25 1.25,-1.25" style="fill:#9c9c9c;fill-opacity:1;fill-rule:evenodd;stroke:#7d7d7d;stroke-width:3.75;stroke-linecap:butt;stroke-linejoin:round;stroke-miterlimit:10;stroke-opacity:1"/>
    <path inkscape:connector-curvature="0" id="path266" d="m 216.25,376.6479 30,0 c 0.6885,0 1.25,0.56152 1.25,1.25 l 0,10 c 0,0.69325 -0.5615,1.25 -1.25,1.25 l -30,0 c -0.69325,0 -1.25,-0.55675 -1.25,-1.25 l 0,-10 c 0,-0.68848 0.55675,-1.25 1.25,-1.25" style="fill:#9c9c9c;fill-opacity:1;fill-rule:evenodd;stroke:#7d7d7d;stroke-width:3.75;stroke-linecap:butt;stroke-linejoin:round;stroke-miterlimit:10;stroke-opacity:1"/>
    <path inkscape:connector-curvature="0" id="path268" d="m 207.5,382.8979 c 0,8.33495 -12.5,8.33495 -12.5,0 0,-8.33008 12.5,-8.33008 12.5,0" style="fill:#c51900;fill-opacity:1;fill-rule:evenodd;stroke:#7d7d7d;stroke-width:2.5;stroke-linecap:butt;stroke-linejoin:round;stroke-miterlimit:10;stroke-opacity:1"/>
    <path inkscape:connector-curvature="0" id="path270" d="m 205,400.4565 5,0 0,27.5 -5,0 z m 0,0" style="fill:#9c9c9c;fill-opacity:1;fill-rule:evenodd;stroke:#7d7d7d;stroke-width:2.5;stroke-linecap:butt;stroke-linejoin:miter;stroke-miterlimit:10;stroke-opacity:1"/>
    <path inkscape:connector-curvature="0" id="path272" d="m 215,400.4565 5,0 0,27.5 -5,0 z m 0,0" style="fill:#9c9c9c;fill-opacity:1;fill-rule:evenodd;stroke:#7d7d7d;stroke-width:2.5;stroke-linecap:butt;stroke-linejoin:miter;stroke-miterlimit:10;stroke-opacity:1"/>
    <path inkscape:connector-curvature="0" id="path274" d="m 225,400.4565 5,0 0,27.5 -5,0 z m 0,0" style="fill:#9c9c9c;fill-opacity:1;fill-rule:evenodd;stroke:#7d7d7d;stroke-width:2.5;stroke-linecap:butt;stroke-linejoin:miter;stroke-miterlimit:10;stroke-opacity:1"/>
    <path inkscape:connector-curvature="0" id="path276" d="m 235,400.4565 5,0 0,27.5 -5,0 z m 0,0" style="fill:#9c9c9c;fill-opacity:1;fill-rule:evenodd;stroke:#7d7d7d;stroke-width:2.5;stroke-linecap:butt;stroke-linejoin:miter;stroke-miterlimit:10;stroke-opacity:1"/>
    <path inkscape:connector-curvature="0" id="path278" d="m 245,400.5102 5,0 0,27.5 -5,0 z m 0,0" style="fill:#9c9c9c;fill-opacity:1;fill-rule:evenodd;stroke:#7d7d7d;stroke-width:2.5;stroke-linecap:butt;stroke-linejoin:miter;stroke-miterlimit:10;stroke-opacity:1"/>
  </g>
  <metadata>
    <rdf:RDF>
      <cc:Work>
        <dc:format>image/svg+xml</dc:format>
        <dc:type rdf:resource="http://purl.org/dc/dcmitype/StillImage"/>
        <cc:license rdf:resource="http://creativecommons.org/licenses/publicdomain/"/>
        <dc:publisher>
          <cc:Agent rdf:about="http://openclipart.org/">
            <dc:title>Open Clip Art Library</dc:title>
          </cc:Agent>
        </dc:publisher>
        <dc:title>Server</dc:title>
        <dc:date>2012-08-02T14:29:09</dc:date>
        <dc:description/>
        <dc:source>http://openclipart.org/detail/171426/server-by-cyberscooty-171426</dc:source>
        <dc:creator>
          <cc:Agent>
            <dc:title>cyberscooty</dc:title>
          </cc:Agent>
        </dc:creator>
        <dc:subject>
          <rdf:Bag>
            <rdf:li>clip art</rdf:li>
            <rdf:li>clipart</rdf:li>
            <rdf:li>computer</rdf:li>
            <rdf:li>informatique</rdf:li>
            <rdf:li>it</rdf:li>
            <rdf:li>ordinateur</rdf:li>
            <rdf:li>server</rdf:li>
            <rdf:li>serveur</rdf:li>
          </rdf:Bag>
        </dc:subject>
      </cc:Work>
      <cc:License rdf:about="http://creativecommons.org/licenses/publicdomain/">
        <cc:permits rdf:resource="http://creativecommons.org/ns#Reproduction"/>
        <cc:permits rdf:resource="http://creativecommons.org/ns#Distribution"/>
        <cc:permits rdf:resource="http://creativecommons.org/ns#DerivativeWorks"/>
      </cc:License>
    </rdf:RDF>
  </metadata>
</svg>
